<mxfile host="app.diagrams.net" modified="2020-04-04T12:58:40.896Z" agent="5.0 (Windows NT 10.0; Win64; x64) AppleWebKit/537.36 (KHTML, like Gecko) Chrome/75.0.3770.100 Safari/537.36" etag="NAnUOytTzgiFx5sYll5a" version="12.9.7" type="github">
  <diagram id="geBm-2fr2CytJHsljV7D" name="Page-1">
    <mxGraphModel dx="1178" dy="631" grid="1" gridSize="10" guides="1" tooltips="1" connect="1" arrows="1" fold="1" page="1" pageScale="1" pageWidth="827" pageHeight="1169" math="0" shadow="0">
      <root>
        <mxCell id="0" />
        <mxCell id="1" parent="0" />
        <mxCell id="N63TacE3sIvnsK9GecQp-14" value="&lt;font style=&quot;font-size: 9px&quot;&gt;AST&lt;/font&gt;" style="text;html=1;align=center;verticalAlign=middle;resizable=0;points=[];autosize=1;fontSize=6;fontColor=#333300;" parent="1" vertex="1">
          <mxGeometry x="151" y="308" width="40" height="10" as="geometry" />
        </mxCell>
        <mxCell id="N63TacE3sIvnsK9GecQp-9" value="&lt;font color=&quot;#000000&quot;&gt;蓝图转FB代码&lt;/font&gt;" style="rounded=0;whiteSpace=wrap;html=1;fillColor=#f0a30a;strokeColor=#BD7000;fontColor=#ffffff;" parent="1" vertex="1">
          <mxGeometry x="372" y="266" width="80" height="30" as="geometry" />
        </mxCell>
        <mxCell id="N63TacE3sIvnsK9GecQp-10" value="&lt;font color=&quot;#000000&quot;&gt;UE4 C++代码&lt;/font&gt;" style="rounded=0;whiteSpace=wrap;html=1;fillColor=#f0a30a;strokeColor=#BD7000;fontColor=#ffffff;" parent="1" vertex="1">
          <mxGeometry x="372" y="308" width="80" height="30" as="geometry" />
        </mxCell>
        <mxCell id="N63TacE3sIvnsK9GecQp-11" value="&lt;font color=&quot;#000000&quot;&gt;FB转UE4&lt;br&gt;Struct代码&lt;/font&gt;" style="rounded=0;whiteSpace=wrap;html=1;fillColor=#f0a30a;strokeColor=#BD7000;fontColor=#FFFFFF;" parent="1" vertex="1">
          <mxGeometry x="372" y="350" width="80" height="30" as="geometry" />
        </mxCell>
        <mxCell id="N63TacE3sIvnsK9GecQp-2" value="&lt;font color=&quot;#000000&quot;&gt;Message&lt;/font&gt;" style="rounded=0;whiteSpace=wrap;html=1;fillColor=#f0a30a;strokeColor=#BD7000;fontColor=#FFFFFF;" parent="1" vertex="1">
          <mxGeometry x="220" y="248" width="69" height="30" as="geometry" />
        </mxCell>
        <mxCell id="N63TacE3sIvnsK9GecQp-3" value="&lt;font color=&quot;#000000&quot;&gt;Enum&lt;/font&gt;" style="rounded=0;whiteSpace=wrap;html=1;fillColor=#f0a30a;strokeColor=#BD7000;fontColor=#FFFFFF;" parent="1" vertex="1">
          <mxGeometry x="220" y="288" width="69" height="30" as="geometry" />
        </mxCell>
        <mxCell id="N63TacE3sIvnsK9GecQp-4" value="&lt;font color=&quot;#000000&quot;&gt;Meta&lt;/font&gt;" style="rounded=0;whiteSpace=wrap;html=1;fillColor=#f0a30a;strokeColor=#BD7000;fontColor=#FFFFFF;" parent="1" vertex="1">
          <mxGeometry x="220" y="368" width="69" height="30" as="geometry" />
        </mxCell>
        <mxCell id="N63TacE3sIvnsK9GecQp-16" value="&lt;font color=&quot;#000000&quot;&gt;Default&lt;/font&gt;" style="rounded=0;whiteSpace=wrap;html=1;fillColor=#f0a30a;strokeColor=#BD7000;fontColor=#FFFFFF;" parent="1" vertex="1">
          <mxGeometry x="220" y="328" width="69" height="30" as="geometry" />
        </mxCell>
        <mxCell id="iA8vbkq-AqObj3hzfbwd-5" style="edgeStyle=orthogonalEdgeStyle;rounded=0;orthogonalLoop=1;jettySize=auto;html=1;fontSize=9;fontColor=#FFFFFF;" edge="1" parent="1">
          <mxGeometry relative="1" as="geometry">
            <mxPoint x="203" y="321" as="targetPoint" />
            <mxPoint x="148" y="321" as="sourcePoint" />
          </mxGeometry>
        </mxCell>
        <mxCell id="iA8vbkq-AqObj3hzfbwd-6" style="edgeStyle=orthogonalEdgeStyle;rounded=0;orthogonalLoop=1;jettySize=auto;html=1;fontSize=9;fontColor=#FFFFFF;" edge="1" parent="1">
          <mxGeometry relative="1" as="geometry">
            <mxPoint x="352" y="320.71" as="targetPoint" />
            <mxPoint x="297" y="320.71" as="sourcePoint" />
          </mxGeometry>
        </mxCell>
        <mxCell id="iA8vbkq-AqObj3hzfbwd-7" value="" style="shape=partialRectangle;whiteSpace=wrap;html=1;right=0;top=0;bottom=0;fillColor=none;routingCenterX=-0.5;fontSize=9;fontColor=#FFFFFF;" vertex="1" parent="1">
          <mxGeometry x="210" y="246" width="90" height="154" as="geometry" />
        </mxCell>
        <mxCell id="iA8vbkq-AqObj3hzfbwd-8" value="" style="shape=partialRectangle;whiteSpace=wrap;html=1;right=0;top=0;bottom=0;fillColor=none;routingCenterX=-0.5;fontSize=9;fontColor=#FFFFFF;" vertex="1" parent="1">
          <mxGeometry x="362" y="244" width="90" height="154" as="geometry" />
        </mxCell>
        <mxCell id="iA8vbkq-AqObj3hzfbwd-10" value="&lt;font color=&quot;#000000&quot;&gt;代码生成&lt;/font&gt;" style="text;html=1;align=center;verticalAlign=middle;resizable=0;points=[];autosize=1;fontSize=9;fontColor=#FFFFFF;" vertex="1" parent="1">
          <mxGeometry x="292" y="298" width="60" height="20" as="geometry" />
        </mxCell>
        <mxCell id="iA8vbkq-AqObj3hzfbwd-11" value="&lt;font color=&quot;#000000&quot;&gt;PUBG.proto&lt;/font&gt;" style="rounded=0;whiteSpace=wrap;html=1;fillColor=#f0a30a;strokeColor=#BD7000;fontColor=#FFFFFF;" vertex="1" parent="1">
          <mxGeometry x="73" y="306" width="70" height="30" as="geometry" />
        </mxCell>
      </root>
    </mxGraphModel>
  </diagram>
</mxfile>
